# Blender v2.93.4 OBJ File: ''
# www.blender.org
mtllib lavaPool2.mtl
o Plane.002_Plane.005
v 67.484589 93.188072 94.182167
v 96.150818 93.188072 94.182167
v 67.484589 88.420700 65.515938
v 96.150818 93.188072 65.515938
v 67.484589 93.188072 79.849052
v 81.817703 93.188072 94.182167
v 96.150818 93.188072 79.849052
v 81.817703 93.188072 65.515938
v 81.817703 93.188072 79.849052
vt 1.000000 0.500000
vt 0.500000 1.000000
vt 0.500000 0.500000
vt 0.000000 0.500000
vt 0.000000 1.000000
vt 0.500000 0.000000
vt 0.000000 0.000000
vt 1.000000 0.000000
vt 1.000000 1.000000
vn 0.0000 1.0000 0.0000
vn -0.3010 0.9049 -0.3010
usemtl None
s off
f 7/1/1 8/2/1 9/3/1
f 5/4/2 8/2/2 3/5/2
f 6/6/1 5/4/1 1/7/1
f 2/8/1 9/3/1 6/6/1
f 7/1/1 4/9/1 8/2/1
f 5/4/1 9/3/1 8/2/1
f 6/6/1 9/3/1 5/4/1
f 2/8/1 7/1/1 9/3/1
